<svg xmlns="http://www.w3.org/2000/svg" viewBox="0 0 306 38">
  <g fill="none" fill-rule="evenodd">
    <path fill="#FFF" fill-rule="nonzero" d="M69.996,33.44 C74.924,33.44 79.984,31.108 82.844,27.5 L77.872,22.616 C75.804,25.168 73.252,26.444 70.26,26.444 C65.112,26.444 61.24,22.616 61.24,17.6 C61.24,12.496 65.024,8.668 69.996,8.668 C73.12,8.668 75.804,10.032 77.96,12.76 L83.064,7.744 C80.248,4.092 75.1,1.716 69.996,1.716 C60.668,1.716 53.452,8.624 53.452,17.6 C53.452,26.532 60.624,33.44 69.996,33.44 Z M89.324,33 L89.324,21.78 L95.088,21.78 L100.896,33 L109.344,33 L102.612,20.68 C106.088,19.096 108.376,15.884 108.376,12.012 C108.376,6.292 103.844,2.2 97.508,2.2 L81.756,2.2 L81.756,33 L89.324,33 Z M96.804,15.62 L89.324,15.62 L89.324,8.668 L96.804,8.668 C99.136,8.668 100.72,10.076 100.72,12.144 C100.72,14.212 99.136,15.62 96.804,15.62 Z M123.304,33.484 C132.544,33.484 139.76,26.488 139.76,17.6 C139.76,8.712 132.544,1.716 123.304,1.716 C114.064,1.716 106.848,8.712 106.848,17.6 C106.848,26.488 114.064,33.484 123.304,33.484 Z M123.304,26.532 C118.376,26.532 114.636,22.704 114.636,17.6 C114.636,12.496 118.376,8.668 123.304,8.668 C128.232,8.668 131.972,12.496 131.972,17.6 C131.972,22.704 128.232,26.532 123.304,26.532 Z M151.916,33 L157.372,13.376 L162.784,33 L170.792,33 L177.656,2.2 L170.132,2.2 L166.392,21.208 L161.024,2.2 L153.94,2.2 L148.572,21.208 L144.832,2.2 L137.044,2.2 L143.908,33 L151.916,33 Z M189.416,33 C198.524,33 205.696,26.224 205.696,17.688 C205.696,9.02 198.524,2.2 189.416,2.2 L176.92,2.2 L176.92,33 L189.416,33 Z M189.24,26.312 L184.488,26.312 L184.488,8.888 L189.24,8.888 C194.08,8.888 197.864,12.76 197.864,17.688 C197.864,22.528 194.08,26.312 189.24,26.312 Z M229.864,33 L229.864,26.444 L212.968,26.444 L212.968,20.636 L224.012,20.636 L224.012,14.3 L212.968,14.3 L212.968,8.756 L229.688,8.756 L229.688,2.2 L205.4,2.2 L205.4,33 L229.864,33 Z M248.268,33 L260.896,2.2 L253.02,2.2 L244.088,25.124 L235.332,2.2 L227.148,2.2 L239.6,33 L248.268,33 Z M257.696,33 L260.556,25.564 L272.568,25.564 L275.384,33 L283.568,33 L271.116,2.2 L262.448,2.2 L249.82,33 L257.696,33 Z M270.324,19.536 L262.844,19.536 L266.628,9.68 L270.324,19.536 Z M305.316,33 L305.316,26.312 L289.08,26.312 L289.08,2.2 L281.512,2.2 L281.512,33 L305.316,33 Z"/>
    <g fill="#7ED321" fill-rule="nonzero">
      <path d="M33.25,0 L4.75,0 C2.127665,0.00245486424 0.00245498835,2.12755744 0,4.74975987 L0,26.1236793 C0.00245498835,28.7458817 2.127665,30.8709843 4.75,30.8734392 L11.875,30.8734392 L11.875,37.107499 C11.8742768,37.4435067 12.0627389,37.7513179 12.3623421,37.9034648 C12.6619453,38.0556116 13.0216808,38.0261903 13.2925781,37.8273845 L22.5625,30.8734392 L33.25,30.8734392 C35.872335,30.8709843 37.997545,28.7458817 38,26.1236793 L38,4.74975987 C37.997545,2.12755744 35.872335,0.00245486424 33.25,0 Z M27.4683594,12.1564167 L17.7457031,21.8043664 C17.5914818,21.9574798 17.3825744,22.0427878 17.1652536,22.0414116 C16.9479328,22.0400018 16.7401362,21.9520227 16.5878906,21.7969449 L10.9695313,16.1343406 C10.8164101,15.9801271 10.7310978,15.7712302 10.7324741,15.5539204 C10.733884,15.3366105 10.8218675,15.1288245 10.9769531,14.9765866 L12.9066406,13.0618396 C13.0608619,12.9087263 13.2697693,12.8234183 13.4870902,12.8248113 C13.704411,12.8262043 13.9122075,12.9141833 14.0644531,13.0692611 L17.1890625,16.2233986 L24.403125,9.06907276 C24.5573463,8.91595937 24.7662537,8.83065138 24.9835745,8.8320276 C25.2008954,8.83343741 25.4086919,8.92141644 25.5609375,9.07649426 L27.4757813,11.0060842 C27.7897851,11.3264455 27.7864709,11.8401333 27.4683594,12.1564167 L27.4683594,12.1564167 Z" opacity=".4"/>
      <path d="M27.7588976,12.2716937 L18.0228724,21.7667123 C17.8684391,21.9173986 17.6592444,22.0013544 17.4416248,22 C17.2240051,21.9986125 17.0159228,21.9120281 16.8634679,21.7594084 L11.2373831,16.1865629 C11.0840514,16.0347939 10.9986218,15.8292083 11,15.615343 C11.0014118,15.4014778 11.0895163,15.1969854 11.2448152,15.0471607 L13.1771561,13.1627646 C13.3315894,13.0120783 13.5407841,12.9281225 13.7584037,12.9294935 C13.9760234,12.9308644 14.1841056,13.0174489 14.3365606,13.1700685 L17.4654664,16.2742092 L24.6894485,9.23328772 C24.8438818,9.08260136 25.0530765,8.9986456 25.2706961,9 C25.4883158,9.00138746 25.696398,9.08797192 25.848853,9.24059158 L27.7663297,11.1395953 C28.0807654,11.4548785 28.0774465,11.9604238 27.7588976,12.2716937 L27.7588976,12.2716937 Z"/>
    </g>
  </g>
</svg>
