<svg version="1" xmlns="http://www.w3.org/2000/svg" width="933.333" height="933.333" viewBox="0 0 700.000000 700.000000"><path d="M76.5.6c-1.1.2-4.5.9-7.5 1.5-23.2 4.5-43.9 19.7-57.7 42.4C8.7 48.7 5.8 55.8 3.2 64L.5 72.5l-.2 208C.2 420.2.4 490.6 1.1 495c5.1 31.7 28.9 59.5 59.4 69.3 12.3 4 13.5 4 84.5 4.3 38.2.1 70.5.3 71.7.3l2.1.1v58.3c0 42.6.3 59.4 1.1 62 2.3 6.7 10.8 11.7 17.6 10.3 1.1-.3 2.5-.5 3.2-.5.9-.1 65.6-47.9 74.8-55.3.6-.5 3.3-2.5 6-4.5 2.8-2.1 5.5-4.1 6-4.6.6-.4 10.7-8 22.5-16.9 11.8-8.8 22.6-16.9 24-17.9 1.4-1.1 11.3-8.5 22-16.6l19.5-14.6 105-.2c103.8-.2 105.1-.2 112.8-2.3 30-8.2 52.6-29 62.1-57.5 1.4-4.2 2.9-10.1 3.3-13 1-6.4 1.1-416.6.1-422.2-1.2-7.5-2.1-11-3.1-12.3-.5-.6-.7-1.2-.3-1.2 1.1 0-6.4-15.3-10.9-22.1-5.9-8.8-18.3-20.3-28-25.8-6.7-3.9-18.5-8.6-27-10.8-3-.8-549.2-1.4-553-.7zm390.3 163.8c1.5.8 11.3 10 21.7 20.5 28.4 28.5 28.4 28 4.1 52.2-83.1 83-168.2 166.6-170.4 167.6-3.6 1.6-7.6 1.6-11.5-.1-3.5-1.4-111.6-109.2-111.7-111.4-.1-.4-.5-2.6-.9-4.9-.7-3.5-.4-4.9 1.4-8.2 2.1-3.6 36.4-38.2 41.3-41.7 3-2.1 10.2-2.4 13.7-.7 1.7.8 16.3 14.9 32.6 31.3 27.1 27.4 29.7 29.7 31.1 28.2 7.8-8.8 133.5-132 135.6-132.9 3.7-1.6 9.7-1.6 13 .1z"/></svg>